<?xml version="1.0" encoding="UTF-8"?>
<svg width="80px" height="80px" viewBox="0 0 80 80" version="1.1" xmlns="http://www.w3.org/2000/svg" xmlns:xlink="http://www.w3.org/1999/xlink">
    <!-- Generator: Sketch 46.1 (44463) - http://www.bohemiancoding.com/sketch -->
    <title>Fill-2</title>
    <desc>Created with Sketch.</desc>
    <defs>
        <polygon id="path-1" points="0 0 80 0 80 111 0 111"></polygon>
        <path d="M40,79.8202247 C17.9075,79.8202247 0,61.9529663 0,39.9101124 C0,17.8672584 17.9075,0 40,0 C62.0925,0 80,17.8672584 80,39.9101124 C80,61.9529663 62.0925,79.8202247 40,79.8202247 Z" id="path-3"></path>
        <polygon id="path-5" points="0.0007 4.26325641e-14 61.724 0 61.724 66.4058 0.0007 66.4058 0.0007 1.42108547e-14"></polygon>
    </defs>
    <g id="Page-1" stroke="none" stroke-width="1" fill="none" fill-rule="evenodd">
        <g id="Agent">
            <g id="Fill-2-Clipped">
                <mask id="mask-2" fill="white">
                    <use xlink:href="#path-1"></use>
                </mask>
                <g id="path-1"></g>
                <mask id="mask-4" fill="white">
                    <use xlink:href="#path-3"></use>
                </mask>
                <use id="Fill-2" fill="#F4F4F4" fill-rule="nonzero" xlink:href="#path-3"></use>
                <g id="Page-1" mask="url(#mask-4)">
                    <g transform="translate(9.000000, 16.000000)">
                        <mask id="mask-6" fill="white">
                            <use xlink:href="#path-5"></use>
                        </mask>
                        <g id="Clip-2" stroke="none" fill="none"></g>
                        <path d="M43.1677,34.2108 C43.0297,34.3518 42.8967,34.4978 42.7537,34.6328 C39.3967,37.8768 35.1727,39.6608 30.8607,39.6608 C26.1787,39.6608 21.8877,37.6038 18.5647,34.2008 C12.2347,37.5398 2.8767,46.2888 0.0007,53.6038 C0.0007,53.6038 10.0647,66.4058 29.7587,66.4058 C49.4527,66.4058 61.7247,53.6038 61.7247,53.6038 C58.8507,46.2938 49.5067,37.5598 43.1677,34.2108 M30.8607,35.7958 C34.4717,35.7958 37.7937,34.2778 40.4307,31.7328 C44.0487,28.2378 46.3727,22.8048 46.3727,16.7048 C46.3727,6.1608 39.4297,-0.0002 30.8597,-0.0002 C22.2947,-0.0002 15.3477,6.1608 15.3477,16.7048 C15.3487,27.2478 22.2957,35.7958 30.8607,35.7958" id="Fill-1" stroke="none" fill="#E1E1E1" fill-rule="evenodd" mask="url(#mask-6)"></path>
                    </g>
                </g>
            </g>
        </g>
    </g>
</svg>